<svg id="Layer_2" height="512" viewBox="0 0 128 128" width="512" xmlns="http://www.w3.org/2000/svg" data-name="Layer 2"><path d="m43.646 68.623a1.75 1.75 0 1 0 2.336-2.606 22.026 22.026 0 0 0 -22.182-4.329 1.75 1.75 0 0 0 1.186 3.293 18.531 18.531 0 0 1 18.66 3.642z"/><path d="m55.322 90.454-13.651-10.861 7.791-2.179a9.967 9.967 0 0 0 4.363-16.646l-.451-.451a31.265 31.265 0 1 0 -44.215 44.217l.45.45a9.863 9.863 0 0 0 7 2.928 10.132 10.132 0 0 0 2.569-.334 9.871 9.871 0 0 0 7.071-6.957l2.179-7.791 10.835 13.618a11.339 11.339 0 0 0 17.056 1.18l.14-.139a11.352 11.352 0 0 0 0-16.036 11.166 11.166 0 0 0 -1.137-.999zm-32.438 9.224a6.466 6.466 0 0 1 -10.8 2.83l-.45-.45a27.765 27.765 0 0 1 10.225-45.758 27.587 27.587 0 0 1 9.353-1.628 27.873 27.873 0 0 1 19.688 8.12l.451.451a6.466 6.466 0 0 1 -2.831 10.8l-6.46 1.807a52.822 52.822 0 0 0 -6.58 1.987 16.493 16.493 0 0 0 -8.8 8.8 55.311 55.311 0 0 0 -2.07 6.863zm31.109 5.331-.14.139a7.839 7.839 0 0 1 -11.087 0 8.168 8.168 0 0 1 -.733-.845l-12.389-15.574a13.16 13.16 0 0 1 7.927-7.929l15.605 12.419a7.977 7.977 0 0 1 .813.708 7.848 7.848 0 0 1 .004 11.082z"/><path d="m126.15 37.729a31.266 31.266 0 0 0 -51.525-11.515l-.449.45a9.967 9.967 0 0 0 4.362 16.646l7.791 2.178-13.618 10.836a11.486 11.486 0 0 0 -1.175 1.024 11.353 11.353 0 0 0 0 16.038l.134.133a11.338 11.338 0 0 0 16.034 0 11.134 11.134 0 0 0 1-1.143l10.862-13.651 2.179 7.791a9.87 9.87 0 0 0 7.071 6.957 10.1 10.1 0 0 0 2.569.334 9.862 9.862 0 0 0 7-2.926l.452-.452a31.392 31.392 0 0 0 7.313-32.7zm-40.209 32.5a7.967 7.967 0 0 1 -.709.813 7.839 7.839 0 0 1 -11.088 0l-.134-.133a7.849 7.849 0 0 1 0-11.085 8.187 8.187 0 0 1 .848-.735l15.572-12.389a13.162 13.162 0 0 1 7.926 7.926zm30.427-2.277-.452.452a6.466 6.466 0 0 1 -10.8-2.831l-3.078-11.007c-.1-.369-.221-.732-.349-1.091a16.5 16.5 0 0 0 -9.166-9.743 55.256 55.256 0 0 0 -6.868-2.068l-6.174-1.726a6.466 6.466 0 0 1 -2.83-10.8l.449-.45a27.766 27.766 0 0 1 39.268 39.265z"/><path d="m115.232 39.8a1.75 1.75 0 0 0 -1.054 2.239 18.53 18.53 0 0 1 -3.642 18.661 1.75 1.75 0 0 0 2.607 2.335 22.027 22.027 0 0 0 4.328-22.183 1.754 1.754 0 0 0 -2.239-1.052z"/></svg>